<svg width="230" height="59" viewBox="0 0 230 59" fill="none" xmlns="http://www.w3.org/2000/svg">
<path d="M56.186 20.75C58.8607 20.75 60.912 21.0673 62.34 21.702C63.768 22.314 64.7767 23.3793 65.366 24.898C65.9553 26.394 66.25 28.5587 66.25 31.392C66.25 34.2253 65.9553 36.39 65.366 37.886C64.7767 39.382 63.768 40.4473 62.34 41.082C60.912 41.694 58.8607 42 56.186 42H46.7V20.75H56.186ZM53.5 36.696H56.288C57.2853 36.696 57.9767 36.5487 58.362 36.254C58.7473 35.9367 58.94 35.37 58.94 34.554V28.196C58.94 27.38 58.7473 26.8247 58.362 26.53C57.9767 26.2127 57.2853 26.054 56.288 26.054H53.5V36.696ZM75.7793 20.75V42H68.9793V20.75H75.7793ZM96.1727 29.284V40.98C95.0167 41.524 93.7473 41.9093 92.3647 42.136C91.0047 42.3853 89.3727 42.51 87.4687 42.51C85.0887 42.51 83.264 42.1813 81.9947 41.524C80.7253 40.8667 79.8187 39.756 79.2747 38.192C78.7533 36.6053 78.4927 34.3387 78.4927 31.392C78.4927 28.4453 78.7873 26.19 79.3767 24.626C79.966 23.0393 80.9747 21.9173 82.4027 21.26C83.8307 20.58 85.8593 20.24 88.4887 20.24C89.6447 20.24 90.8913 20.3307 92.2287 20.512C93.5887 20.6933 94.5633 20.8973 95.1527 21.124L94.3027 26.496C93.4867 26.3147 92.5687 26.1673 91.5487 26.054C90.5513 25.918 89.7013 25.85 88.9987 25.85C87.7747 25.85 86.936 26.02 86.4827 26.36C86.0293 26.7 85.8027 27.3233 85.8027 28.23V37.036H89.7127V34.214H87.9787V29.284H96.1727ZM105.529 20.75V42H98.7293V20.75H105.529ZM118.953 42H112.153V26.36H107.393V20.75H123.713V26.36H118.953V42ZM132.397 20.75H139.197V36.39H145.657V42H132.397V20.75ZM154.338 36.39H162.328V42H147.538V20.75H162.498L161.648 26.36H154.338V28.91H161.138V33.84H154.338V36.39ZM177.476 38.634H171.322L170.472 42H163.672L169.112 20.75H179.686L185.126 42H178.326L177.476 38.634ZM176.184 33.704L174.552 27.278H174.246L172.614 33.704H176.184ZM198.475 42L195.585 35.846H193.783V42H186.983V20.75H196.843C199.745 20.75 201.83 21.362 203.099 22.586C204.369 23.81 205.003 25.816 205.003 28.604C205.003 31.528 204.131 33.5453 202.385 34.656L205.853 42H198.475ZM193.783 30.916H196.537C197.036 30.916 197.376 30.814 197.557 30.61C197.761 30.406 197.863 30.032 197.863 29.488V27.788C197.863 27.244 197.761 26.87 197.557 26.666C197.376 26.462 197.036 26.36 196.537 26.36H193.783V30.916ZM208.403 20.75H215.135L219.759 28.196C220.326 29.148 220.609 29.9527 220.609 30.61H220.813V20.75H227.613V42H220.881L216.257 34.554C215.691 33.602 215.407 32.7973 215.407 32.14H215.203V42H208.403V20.75Z" fill="white"/>
<rect y="21" width="14" height="14" fill="white"/>
<rect x="21" y="21" width="14" height="14" fill="#FFD600"/>
<rect y="42" width="14" height="14" fill="#FF234B"/>
<rect x="21" y="42" width="14" height="14" fill="#FFD600"/>
<path d="M49.0879 51.5635C47.9622 51.2399 47.1419 50.8434 46.627 50.374C46.1165 49.9001 45.8613 49.3167 45.8613 48.624C45.8613 47.8402 46.1735 47.193 46.7979 46.6826C47.4268 46.1676 48.2425 45.9102 49.2451 45.9102C49.9287 45.9102 50.5371 46.0423 51.0703 46.3066C51.6081 46.571 52.0228 46.9355 52.3145 47.4004C52.6107 47.8652 52.7588 48.3734 52.7588 48.9248H51.4395C51.4395 48.3232 51.248 47.8516 50.8652 47.5098C50.4824 47.1634 49.9424 46.9902 49.2451 46.9902C48.598 46.9902 48.0921 47.1338 47.7275 47.4209C47.3675 47.7035 47.1875 48.0977 47.1875 48.6035C47.1875 49.0091 47.3584 49.3532 47.7002 49.6357C48.0465 49.9137 48.6322 50.1689 49.457 50.4014C50.2865 50.6338 50.9336 50.8913 51.3984 51.1738C51.8678 51.4518 52.2142 51.7777 52.4375 52.1514C52.6654 52.5251 52.7793 52.9648 52.7793 53.4707C52.7793 54.2773 52.4648 54.9245 51.8359 55.4121C51.207 55.8952 50.3662 56.1367 49.3135 56.1367C48.6299 56.1367 47.9919 56.0068 47.3994 55.7471C46.807 55.4827 46.349 55.1227 46.0254 54.667C45.7064 54.2113 45.5469 53.694 45.5469 53.1152H46.8662C46.8662 53.7168 47.0872 54.193 47.5293 54.5439C47.9759 54.8903 48.5706 55.0635 49.3135 55.0635C50.0062 55.0635 50.5371 54.9222 50.9062 54.6396C51.2754 54.3571 51.46 53.972 51.46 53.4844C51.46 52.9967 51.2891 52.6208 50.9473 52.3564C50.6055 52.0876 49.9857 51.8232 49.0879 51.5635ZM53.9346 52.2334C53.9346 51.5088 54.0758 50.8571 54.3584 50.2783C54.6455 49.6995 55.042 49.2529 55.5479 48.9385C56.0583 48.624 56.6393 48.4668 57.291 48.4668C58.2982 48.4668 59.1117 48.8154 59.7314 49.5127C60.3558 50.21 60.668 51.1374 60.668 52.2949V52.3838C60.668 53.1038 60.529 53.751 60.251 54.3252C59.9775 54.8949 59.5833 55.3392 59.0684 55.6582C58.5579 55.9772 57.9701 56.1367 57.3047 56.1367C56.3021 56.1367 55.4886 55.7881 54.8643 55.0908C54.2445 54.3936 53.9346 53.4707 53.9346 52.3223V52.2334ZM55.2061 52.3838C55.2061 53.2041 55.3952 53.8626 55.7734 54.3594C56.1562 54.8561 56.6667 55.1045 57.3047 55.1045C57.9473 55.1045 58.4577 54.8538 58.8359 54.3525C59.2142 53.8467 59.4033 53.1403 59.4033 52.2334C59.4033 51.4222 59.2096 50.766 58.8223 50.2646C58.4395 49.7588 57.929 49.5059 57.291 49.5059C56.6667 49.5059 56.1631 49.7542 55.7803 50.251C55.3975 50.7477 55.2061 51.4587 55.2061 52.3838ZM63.4434 48.6035L63.4775 49.4238C64.0199 48.7858 64.7513 48.4668 65.6719 48.4668C66.7064 48.4668 67.4105 48.8633 67.7842 49.6562C68.0303 49.3008 68.3493 49.0137 68.7412 48.7949C69.1377 48.5762 69.6048 48.4668 70.1426 48.4668C71.765 48.4668 72.5898 49.3258 72.6172 51.0439V56H71.3525V51.1191C71.3525 50.5905 71.2318 50.1963 70.9902 49.9365C70.7487 49.6722 70.3431 49.54 69.7734 49.54C69.304 49.54 68.9144 49.6813 68.6045 49.9639C68.2946 50.2419 68.1146 50.6178 68.0645 51.0918V56H66.793V51.1533C66.793 50.0778 66.2666 49.54 65.2139 49.54C64.3844 49.54 63.8171 49.8932 63.5117 50.5996V56H62.2471V48.6035H63.4434ZM77.6006 56.1367C76.598 56.1367 75.7822 55.8086 75.1533 55.1523C74.5244 54.4915 74.21 53.6097 74.21 52.5068V52.2744C74.21 51.5407 74.349 50.8867 74.627 50.3125C74.9095 49.7337 75.3014 49.2826 75.8027 48.959C76.3086 48.6309 76.8555 48.4668 77.4434 48.4668C78.4049 48.4668 79.1523 48.7835 79.6855 49.417C80.2188 50.0505 80.4854 50.9574 80.4854 52.1377V52.6641H75.4746C75.4928 53.3932 75.7048 53.9834 76.1104 54.4346C76.5205 54.8812 77.04 55.1045 77.6689 55.1045C78.1156 55.1045 78.4938 55.0133 78.8037 54.8311C79.1136 54.6488 79.3848 54.4072 79.6172 54.1064L80.3896 54.708C79.7699 55.6605 78.8402 56.1367 77.6006 56.1367ZM77.4434 49.5059C76.9329 49.5059 76.5046 49.6927 76.1582 50.0664C75.8118 50.4355 75.5977 50.9551 75.5156 51.625H79.2207V51.5293C79.1842 50.8867 79.0111 50.39 78.7012 50.0391C78.3913 49.6836 77.972 49.5059 77.4434 49.5059ZM87.1436 46.8125V48.6035H88.5244V49.5811H87.1436V54.168C87.1436 54.4642 87.2051 54.6875 87.3281 54.8379C87.4512 54.9837 87.6608 55.0566 87.957 55.0566C88.1029 55.0566 88.3034 55.0293 88.5586 54.9746V56C88.2259 56.0911 87.9023 56.1367 87.5879 56.1367C87.0228 56.1367 86.5967 55.9658 86.3096 55.624C86.0225 55.2822 85.8789 54.7969 85.8789 54.168V49.5811H84.5322V48.6035H85.8789V46.8125H87.1436ZM93.0771 56.1367C92.0745 56.1367 91.2588 55.8086 90.6299 55.1523C90.001 54.4915 89.6865 53.6097 89.6865 52.5068V52.2744C89.6865 51.5407 89.8255 50.8867 90.1035 50.3125C90.3861 49.7337 90.778 49.2826 91.2793 48.959C91.7852 48.6309 92.332 48.4668 92.9199 48.4668C93.8815 48.4668 94.6289 48.7835 95.1621 49.417C95.6953 50.0505 95.9619 50.9574 95.9619 52.1377V52.6641H90.9512C90.9694 53.3932 91.1813 53.9834 91.5869 54.4346C91.9971 54.8812 92.5166 55.1045 93.1455 55.1045C93.5921 55.1045 93.9704 55.0133 94.2803 54.8311C94.5902 54.6488 94.8613 54.4072 95.0938 54.1064L95.8662 54.708C95.2464 55.6605 94.3167 56.1367 93.0771 56.1367ZM92.9199 49.5059C92.4095 49.5059 91.9811 49.6927 91.6348 50.0664C91.2884 50.4355 91.0742 50.9551 90.9922 51.625H94.6973V51.5293C94.6608 50.8867 94.4876 50.39 94.1777 50.0391C93.8678 49.6836 93.4486 49.5059 92.9199 49.5059ZM99.9131 51.3037L101.554 48.6035H103.03L100.61 52.2607L103.105 56H101.643L99.9336 53.2314L98.2246 56H96.7549L99.25 52.2607L96.8301 48.6035H98.293L99.9131 51.3037ZM106.093 46.8125V48.6035H107.474V49.5811H106.093V54.168C106.093 54.4642 106.154 54.6875 106.277 54.8379C106.4 54.9837 106.61 55.0566 106.906 55.0566C107.052 55.0566 107.253 55.0293 107.508 54.9746V56C107.175 56.0911 106.852 56.1367 106.537 56.1367C105.972 56.1367 105.546 55.9658 105.259 55.624C104.972 55.2822 104.828 54.7969 104.828 54.168V49.5811H103.481V48.6035H104.828V46.8125H106.093ZM116.996 55.2686C116.504 55.8473 115.782 56.1367 114.829 56.1367C114.041 56.1367 113.439 55.9089 113.024 55.4531C112.614 54.9928 112.407 54.3138 112.402 53.416V48.6035H113.667V53.3818C113.667 54.5029 114.123 55.0635 115.034 55.0635C116 55.0635 116.643 54.7035 116.962 53.9834V48.6035H118.227V56H117.023L116.996 55.2686ZM121.351 48.6035L121.392 49.5332C121.957 48.8223 122.695 48.4668 123.606 48.4668C125.17 48.4668 125.958 49.3486 125.972 51.1123V56H124.707V51.1055C124.702 50.5723 124.579 50.1781 124.338 49.9229C124.101 49.6676 123.729 49.54 123.224 49.54C122.813 49.54 122.453 49.6494 122.144 49.8682C121.834 50.0869 121.592 50.374 121.419 50.7295V56H120.154V48.6035H121.351ZM127.571 52.2402C127.571 51.1055 127.84 50.194 128.378 49.5059C128.916 48.8132 129.62 48.4668 130.49 48.4668C131.356 48.4668 132.042 48.763 132.548 49.3555V45.5H133.812V56H132.65L132.589 55.207C132.083 55.8268 131.379 56.1367 130.477 56.1367C129.62 56.1367 128.92 55.7858 128.378 55.084C127.84 54.3822 127.571 53.4661 127.571 52.3359V52.2402ZM128.836 52.3838C128.836 53.2223 129.009 53.8786 129.355 54.3525C129.702 54.8265 130.18 55.0635 130.791 55.0635C131.593 55.0635 132.179 54.7035 132.548 53.9834V50.5859C132.17 49.8887 131.589 49.54 130.805 49.54C130.185 49.54 129.702 49.7793 129.355 50.2578C129.009 50.7363 128.836 51.445 128.836 52.3838ZM138.851 56.1367C137.848 56.1367 137.032 55.8086 136.403 55.1523C135.774 54.4915 135.46 53.6097 135.46 52.5068V52.2744C135.46 51.5407 135.599 50.8867 135.877 50.3125C136.16 49.7337 136.551 49.2826 137.053 48.959C137.559 48.6309 138.105 48.4668 138.693 48.4668C139.655 48.4668 140.402 48.7835 140.936 49.417C141.469 50.0505 141.735 50.9574 141.735 52.1377V52.6641H136.725C136.743 53.3932 136.955 53.9834 137.36 54.4346C137.771 54.8812 138.29 55.1045 138.919 55.1045C139.366 55.1045 139.744 55.0133 140.054 54.8311C140.364 54.6488 140.635 54.4072 140.867 54.1064L141.64 54.708C141.02 55.6605 140.09 56.1367 138.851 56.1367ZM138.693 49.5059C138.183 49.5059 137.755 49.6927 137.408 50.0664C137.062 50.4355 136.848 50.9551 136.766 51.625H140.471V51.5293C140.434 50.8867 140.261 50.39 139.951 50.0391C139.641 49.6836 139.222 49.5059 138.693 49.5059ZM146.78 49.7383C146.589 49.7064 146.382 49.6904 146.158 49.6904C145.329 49.6904 144.766 50.0436 144.47 50.75V56H143.205V48.6035H144.436L144.456 49.458C144.871 48.7972 145.459 48.4668 146.22 48.4668C146.466 48.4668 146.653 48.4987 146.78 48.5625V49.7383ZM152.796 56H151.531V45.5H152.796V56ZM154.491 52.2334C154.491 51.5088 154.632 50.8571 154.915 50.2783C155.202 49.6995 155.599 49.2529 156.104 48.9385C156.615 48.624 157.196 48.4668 157.848 48.4668C158.855 48.4668 159.668 48.8154 160.288 49.5127C160.912 50.21 161.225 51.1374 161.225 52.2949V52.3838C161.225 53.1038 161.086 53.751 160.808 54.3252C160.534 54.8949 160.14 55.3392 159.625 55.6582C159.115 55.9772 158.527 56.1367 157.861 56.1367C156.859 56.1367 156.045 55.7881 155.421 55.0908C154.801 54.3936 154.491 53.4707 154.491 52.3223V52.2334ZM155.763 52.3838C155.763 53.2041 155.952 53.8626 156.33 54.3594C156.713 54.8561 157.223 55.1045 157.861 55.1045C158.504 55.1045 159.014 54.8538 159.393 54.3525C159.771 53.8467 159.96 53.1403 159.96 52.2334C159.96 51.4222 159.766 50.766 159.379 50.2646C158.996 49.7588 158.486 49.5059 157.848 49.5059C157.223 49.5059 156.72 49.7542 156.337 50.251C155.954 50.7477 155.763 51.4587 155.763 52.3838ZM162.51 52.2402C162.51 51.0872 162.776 50.1712 163.31 49.4922C163.843 48.8086 164.549 48.4668 165.429 48.4668C166.331 48.4668 167.035 48.7858 167.541 49.4238L167.603 48.6035H168.758V55.8223C168.758 56.7793 168.473 57.5335 167.903 58.085C167.338 58.6364 166.577 58.9121 165.62 58.9121C165.087 58.9121 164.565 58.7982 164.055 58.5703C163.544 58.3424 163.155 58.0303 162.886 57.6338L163.542 56.875C164.084 57.5449 164.747 57.8799 165.531 57.8799C166.146 57.8799 166.625 57.7067 166.967 57.3604C167.313 57.014 167.486 56.5264 167.486 55.8975V55.2617C166.98 55.8451 166.29 56.1367 165.415 56.1367C164.549 56.1367 163.847 55.7881 163.31 55.0908C162.776 54.3936 162.51 53.4434 162.51 52.2402ZM163.781 52.3838C163.781 53.2178 163.952 53.874 164.294 54.3525C164.636 54.8265 165.114 55.0635 165.729 55.0635C166.527 55.0635 167.113 54.7012 167.486 53.9766V50.5996C167.099 49.8932 166.518 49.54 165.743 49.54C165.128 49.54 164.647 49.7793 164.301 50.2578C163.954 50.7363 163.781 51.445 163.781 52.3838ZM170.337 52.2334C170.337 51.5088 170.478 50.8571 170.761 50.2783C171.048 49.6995 171.444 49.2529 171.95 48.9385C172.461 48.624 173.042 48.4668 173.693 48.4668C174.701 48.4668 175.514 48.8154 176.134 49.5127C176.758 50.21 177.07 51.1374 177.07 52.2949V52.3838C177.07 53.1038 176.931 53.751 176.653 54.3252C176.38 54.8949 175.986 55.3392 175.471 55.6582C174.96 55.9772 174.372 56.1367 173.707 56.1367C172.704 56.1367 171.891 55.7881 171.267 55.0908C170.647 54.3936 170.337 53.4707 170.337 52.3223V52.2334ZM171.608 52.3838C171.608 53.2041 171.798 53.8626 172.176 54.3594C172.559 54.8561 173.069 55.1045 173.707 55.1045C174.35 55.1045 174.86 54.8538 175.238 54.3525C175.617 53.8467 175.806 53.1403 175.806 52.2334C175.806 51.4222 175.612 50.766 175.225 50.2646C174.842 49.7588 174.331 49.5059 173.693 49.5059C173.069 49.5059 172.565 49.7542 172.183 50.251C171.8 50.7477 171.608 51.4587 171.608 52.3838Z" fill="white"/>
</svg>
